<svg width="15" height="15" viewBox="0 0 15 15" fill="none" xmlns="http://www.w3.org/2000/svg">
<path d="M7.5 2.44559C7.67935 2.44559 7.82609 2.29885 7.82609 2.1195V1.95646C7.82609 1.77711 7.67935 1.63037 7.5 1.63037C7.32065 1.63037 7.17391 1.77711 7.17391 1.95646V2.1195C7.17391 2.29885 7.32065 2.44559 7.5 2.44559Z" fill="#FF9846"/>
<path d="M7.5 12.5544C7.32065 12.5544 7.17391 12.7012 7.17391 12.8805V13.0436C7.17391 13.2229 7.32065 13.3697 7.5 13.3697C7.67935 13.3697 7.82609 13.2229 7.82609 13.0436V12.8805C7.82609 12.7012 7.67935 12.5544 7.5 12.5544Z" fill="#FF9846"/>
<path d="M2.11956 7.17383H1.95652C1.77717 7.17383 1.63043 7.32057 1.63043 7.49991C1.63043 7.67926 1.77717 7.826 1.95652 7.826H2.11956C2.29891 7.826 2.44565 7.67926 2.44565 7.49991C2.44565 7.32057 2.29891 7.17383 2.11956 7.17383Z" fill="#FF9846"/>
<path d="M13.0435 7.17383H12.8804C12.7011 7.17383 12.5543 7.32057 12.5543 7.49991C12.5543 7.67926 12.7011 7.826 12.8804 7.826H13.0435C13.2228 7.826 13.3696 7.67926 13.3696 7.49991C13.3696 7.32057 13.2228 7.17383 13.0435 7.17383Z" fill="#FF9846"/>
<path d="M3.81522 3.35881C3.68478 3.22838 3.48913 3.22838 3.3587 3.35881C3.22826 3.48925 3.22826 3.6849 3.3587 3.81533L3.47283 3.92947C3.53805 3.99468 3.61957 4.02729 3.70109 4.02729C3.78261 4.02729 3.86413 3.99468 3.92935 3.92947C4.05979 3.79903 4.05979 3.60338 3.92935 3.47294L3.81522 3.35881Z" fill="#FF9846"/>
<path d="M3.47283 11.0707L3.3587 11.1849C3.22826 11.3153 3.22826 11.5109 3.3587 11.6414C3.42392 11.7066 3.50544 11.7392 3.58696 11.7392C3.66848 11.7392 3.75 11.7066 3.81522 11.6414L3.92935 11.5272C4.05979 11.3968 4.05979 11.2012 3.92935 11.0707C3.79892 10.9403 3.60326 10.9403 3.47283 11.0707Z" fill="#FF9846"/>
<path d="M11.1848 3.35881L11.0707 3.47294C10.9402 3.60338 10.9402 3.79903 11.0707 3.92947C11.1359 3.99468 11.2174 4.02729 11.2989 4.02729C11.3804 4.02729 11.462 3.99468 11.5272 3.92947L11.6413 3.81533C11.7717 3.6849 11.7717 3.48925 11.6413 3.35881C11.5109 3.22838 11.3152 3.22838 11.1848 3.35881Z" fill="#FF9846"/>
<path d="M7.82609 7.36965V4.40226C7.82609 4.22291 7.67935 4.07617 7.5 4.07617C7.32065 4.07617 7.17391 4.22291 7.17391 4.40226V7.50009C7.17391 7.58161 7.20652 7.66313 7.27174 7.72835L10.8424 11.299C10.9076 11.3642 10.9891 11.3968 11.0707 11.3968C11.1522 11.3968 11.2337 11.3642 11.2989 11.299C11.4293 11.1686 11.4293 10.9729 11.2989 10.8425L7.82609 7.36965Z" fill="#FF9846"/>
<path d="M7.5 0C3.3587 0 0 3.3587 0 7.5C0 11.6413 3.3587 15 7.5 15C11.6413 15 15 11.6413 15 7.5C15 3.3587 11.6413 0 7.5 0ZM7.5 14.3478C3.71739 14.3478 0.652174 11.2826 0.652174 7.5C0.652174 3.71739 3.71739 0.652174 7.5 0.652174C11.2826 0.652174 14.3478 3.71739 14.3478 7.5C14.3478 11.2826 11.2826 14.3478 7.5 14.3478Z" fill="#FF9846"/>
</svg>
