<svg width="50" height="50" viewBox="0 0 50 50" fill="none" xmlns="http://www.w3.org/2000/svg">
<g clip-path="url(#clip0_684_469)">
<path d="M0 25C0 38.8071 11.1929 50 25 50C38.8071 50 50 38.8071 50 25C50 11.1929 38.8071 0 25 0C11.1929 0 0 11.1929 0 25Z" fill="#1BD741"/>
<path d="M9 42.0085L11.4491 33.3099C9.8742 30.6343 9.04498 27.5901 9.04498 24.4628C9.04498 14.8338 16.8788 7 26.5078 7C36.1368 7 43.9705 14.8338 43.9705 24.4628C43.9705 34.0919 36.1368 41.9256 26.5078 41.9256C23.5075 41.9256 20.5695 41.1576 17.9705 39.6993L9 42.0085ZM18.4291 36.5224L18.9637 36.8487C21.2297 38.2321 23.8385 38.9634 26.5078 38.9634C34.5034 38.9634 41.0082 32.4584 41.0082 24.4628C41.0082 16.4672 34.5034 9.96227 26.5078 9.96227C18.5122 9.96227 12.0073 16.4672 12.0073 24.4628C12.0073 27.2488 12.7991 29.9542 14.2969 32.2866L14.6568 32.8472L13.2465 37.8565L18.4291 36.5224Z" fill="white"/>
<path d="M21.6023 16.3348L20.4691 16.273C20.1132 16.2536 19.7641 16.3726 19.4951 16.6062C18.9457 17.0833 18.0674 18.0055 17.7976 19.2073C17.3953 20.9993 18.017 23.1936 19.6262 25.3879C21.2354 27.5821 24.2342 31.093 29.537 32.5924C31.2458 33.0756 32.59 32.7499 33.6271 32.0864C34.4485 31.561 35.0148 30.7176 35.2188 29.7642L35.3998 28.9192C35.4572 28.6506 35.3209 28.3781 35.0714 28.2631L31.2418 26.4979C30.9932 26.3834 30.6984 26.4558 30.5312 26.6725L29.0278 28.6215C28.9142 28.7687 28.7198 28.8271 28.5443 28.7654C27.5147 28.4036 24.066 26.9592 22.1736 23.314C22.0916 23.1559 22.112 22.9641 22.2284 22.8292L23.6652 21.1671C23.812 20.9973 23.8491 20.7587 23.7609 20.5524L22.1101 16.6904C22.0222 16.4848 21.8253 16.347 21.6023 16.3348Z" fill="white"/>
<rect width="51" height="50" rx="25" fill="white" fill-opacity="0.85"/>
</g>
<defs>
<clipPath id="clip0_684_469">
<rect width="50" height="50" fill="white"/>
</clipPath>
</defs>
</svg>
